<svg xmlns="http://www.w3.org/2000/svg" viewBox="0 0 512 512"><rect width="512" height="512" rx="112" fill="#4f46e5"/><circle cx="256" cy="270" r="190" fill="#6366f1"/><rect x="124" y="150" width="270" height="240" rx="34" fill="#fcd34d"/><rect x="124" y="150" width="62" height="240" rx="34" fill="#f59e0b"/><rect x="160" y="150" width="26" height="240" fill="#f59e0b"/><rect x="148" y="372" width="262" height="30" rx="15" fill="#fff"/><rect x="132" y="380" width="280" height="22" rx="11" fill="#e0e7ff"/><path d="M338 150h42v78l-21-16-21 16z" fill="#ef4444"/><circle cx="242" cy="262" r="17" fill="#1e293b"/><circle cx="318" cy="262" r="17" fill="#1e293b"/><circle cx="248" cy="256" r="6" fill="#fff"/><circle cx="324" cy="256" r="6" fill="#fff"/><circle cx="214" cy="300" r="16" fill="#fb7185" opacity=".6"/><circle cx="346" cy="300" r="16" fill="#fb7185" opacity=".6"/><path d="M250 298q30 38 60 0" fill="none" stroke="#1e293b" stroke-width="12" stroke-linecap="round"/><path d="M400 96c-6-24-44-24-44 4 0 22 26 38 44 54 18-16 44-32 44-54 0-28-38-28-44-4z" transform="translate(-34 -22) scale(.9)" fill="#fb7185"/></svg>
